<svg width="24" height="24" viewBox="0 0 24 24" fill="none" xmlns="http://www.w3.org/2000/svg">
<path d="M266.368 1301.99C309.417 1325.64 359.193 1350.47 415.695 1376.49L716.922 1263.28C664.041 1245.18 614.753 1224.97 569.058 1202.65C520.628 1179 489.686 1160.08 476.233 1145.89C468.161 1134.07 458.744 1111.6 447.982 1078.49C437.22 1045.37 427.803 1002.8 419.731 950.771C414.35 898.738 411.659 784.031 411.659 784.031L427.803 610.196C427.803 610.196 450.673 500.219 464.126 464.742L306.726 354.765C250.224 383.146 181.614 422.17 181.614 422.17L129.148 624.387L108.969 911.746C108.969 985.064 117.04 1052.47 133.184 1113.96C149.327 1175.46 166.816 1220.39 185.65 1248.77C196.413 1260.6 223.318 1278.34 266.368 1301.99Z" fill="#FBBC05"/>
<path d="M504.484 266.074C431.839 296.82 365.919 326.384 306.726 354.765L464.126 464.742C488.341 452.917 526.009 439.909 577.13 425.718C628.251 411.527 680.717 399.702 734.529 390.242C791.031 380.781 835.426 376.051 867.713 376.051C900 376.051 940.359 385.511 988.789 404.432C1039.91 420.988 1088.34 441.091 1134.08 464.742C1179.82 486.028 1208.07 503.766 1218.83 517.957C1234.98 539.243 1247.09 582.997 1255.16 649.22C1263.23 713.078 1267.26 782.848 1267.26 858.532C1267.26 929.485 1260.54 999.255 1247.09 1067.84C1236.32 1136.43 1221.52 1187.28 1202.69 1220.39C1189.24 1225.12 1160.99 1234.58 1117.94 1248.77L1323.77 1333.92C1399.1 1298.44 1451.57 1266.51 1481.17 1238.13C1505.38 1181.37 1526.91 1109.23 1545.74 1021.72C1564.57 931.85 1573.99 841.976 1573.99 752.102C1573.99 702.435 1567.26 651.585 1553.81 599.553C1543.05 547.521 1528.25 502.584 1509.42 464.742C1487.89 433.996 1462.33 409.162 1432.74 390.242C1405.83 368.956 1376.23 350.035 1343.95 333.479V319.289C1419.28 314.558 1494.62 307.463 1569.96 298.003C1645.29 286.177 1705.83 273.169 1751.57 258.978C1762.33 235.327 1773.09 202.216 1783.86 159.644C1794.62 117.073 1800 75.6832 1800 35.4765L1743.5 0C1705.83 18.9208 1653.36 43.7544 1586.1 74.5006C1518.83 102.882 1446.19 130.08 1368.16 156.097C1290.13 182.113 1212.11 201.034 1134.08 212.859C1117.94 205.764 1087 195.121 1041.26 180.93C995.516 166.74 956.502 159.644 924.215 159.644C867.713 159.644 801.794 170.287 726.457 191.573C653.812 210.494 579.821 235.328 504.484 266.074Z" fill="#EA4335"/>
<path d="M589.238 1479.37L625.56 1490.01L684.333 1472.26C684.929 1472.27 685.518 1472.28 686.099 1472.28C817.937 1469.91 937.668 1455.72 1045.29 1429.7C1155.61 1401.32 1248.43 1369.39 1323.77 1333.92L1117.94 1248.77C1074.89 1260.6 1029.15 1271.24 980.717 1280.7C932.287 1290.16 891.928 1294.89 859.641 1294.89C827.354 1294.89 782.96 1285.43 726.457 1266.51C723.266 1265.44 720.088 1264.37 716.922 1263.28L415.695 1376.49C467.811 1400.49 516.494 1421.46 561.743 1439.42C582.735 1425.43 573.066 1488.42 589.238 1479.37Z" fill="#4285F4"/>
<path fill-rule="evenodd" clip-rule="evenodd" d="M738.565 2643C698.206 2643 645.74 2632.36 581.166 2611.07C519.282 2589.79 454.708 2561.4 387.444 2525.93C320.179 2492.82 256.951 2454.97 197.758 2412.4C138.565 2369.83 90.1345 2327.26 52.4664 2284.69C17.4888 2244.48 0 2207.82 0 2174.71C0 2139.23 21.5247 2097.84 64.574 2050.54C110.314 2003.24 164.126 1957.12 226.009 1912.18C351.928 2031.39 379.914 2066.37 378.168 2068.96C357.446 2100.14 347.085 2121.2 347.085 2132.14C347.085 2151.06 364.574 2175.89 399.552 2206.64C437.22 2239.75 481.614 2271.68 532.735 2302.43C586.547 2333.17 639.013 2359.19 690.135 2380.47C741.256 2404.12 782.96 2415.95 815.247 2415.95C866.368 2415.95 930.942 2412.4 1008.97 2405.31C1087 2398.21 1165.02 2389.93 1243.05 2380.47C1321.08 2371.01 1378.92 2360.37 1416.59 2348.55C1424.66 2327.26 1430.04 2289.42 1432.74 2235.02C1435.43 2180.62 1436.77 2138.05 1436.77 2107.3C1436.77 2103.87 1436.74 2100.47 1436.67 2097.09L1739.46 2004.42C1739.46 2073.01 1732.74 2143.96 1719.28 2217.28C1705.83 2292.97 1689.69 2354.46 1670.85 2401.76C1643.95 2423.05 1598.21 2446.7 1533.63 2472.71C1469.06 2501.09 1392.38 2528.29 1303.59 2554.31C1217.49 2580.32 1124.66 2601.61 1025.11 2618.17C928.251 2634.72 832.735 2643 738.565 2643ZM561.743 1439.42C565.551 1440.94 569.335 1442.43 573.094 1443.89C622.989 1462.36 660.069 1471.82 684.333 1472.26L625.56 1490.01L589.238 1479.37C573.066 1488.42 582.735 1425.43 561.743 1439.42Z" fill="#34A853"/>
<path d="M407.623 1784.47C351.121 1822.31 290.583 1864.88 226.009 1912.18C351.928 2031.39 379.914 2066.37 378.168 2068.96C379.846 2066.44 381.593 2063.84 383.408 2061.19C410.314 2028.07 442.601 1991.41 480.269 1951.21C517.937 1911 554.26 1874.34 589.238 1841.23C605.381 1843.6 643.049 1848.33 702.242 1855.42C761.435 1862.52 828.7 1870.79 904.036 1880.26C982.063 1889.72 1057.4 1899.18 1130.04 1908.64C1205.38 1918.1 1268.61 1927.56 1319.73 1937.02C1373.54 1946.48 1403.14 1953.57 1408.52 1958.3C1416.59 1974.86 1423.32 1996.14 1428.7 2022.16C1433.48 2045.27 1436.14 2070.25 1436.67 2097.09L1739.46 2004.42C1739.46 1973.68 1736.77 1941.75 1731.39 1908.64C1726.01 1873.16 1716.59 1840.05 1703.14 1809.3C1681.61 1788.02 1634.53 1769.1 1561.88 1752.54C1491.93 1735.98 1409.87 1720.61 1315.7 1706.42C1221.52 1692.23 1126.01 1680.4 1029.15 1670.94C934.978 1659.12 851.569 1649.66 778.924 1642.56C708.969 1633.1 663.229 1627.19 641.704 1624.82L684.333 1472.26C660.069 1471.82 622.989 1462.36 573.094 1443.89C569.335 1442.43 565.551 1440.94 561.743 1439.42C544.317 1451.04 525.231 1464.35 504.484 1479.37C461.435 1512.48 423.767 1546.78 391.48 1582.25C361.883 1615.36 347.085 1641.38 347.085 1660.3C347.085 1679.22 353.812 1700.51 367.265 1724.16C380.717 1747.81 394.17 1767.91 407.623 1784.47Z" fill="#4285F4"/>
</svg>
